Coordinates
nRows=7
nColumns=38

# SIMM Motion File Header:
name Coordinates
datacolumns 38
datarows 7
otherdata 1
range 0.80900000000000005000 0.81500000000000006000

Units are S.I. units (second, meters, Newtons, ...)
Angles are in degrees.

endheader
time	pelvis_tilt	pelvis_list	pelvis_rotation	pelvis_tx	pelvis_ty	pelvis_tz	hip_flexion_r	hip_adduction_r	hip_rotation_r	knee_angle_r	ankle_angle_r	subtalar_angle_r	mtp_angle_r	hip_flexion_l	hip_adduction_l	hip_rotation_l	knee_angle_l	ankle_angle_l	subtalar_angle_l	mtp_angle_l	lumbar_extension	lumbar_bending	lumbar_rotation	arm_flex_r	arm_add_r	arm_rot_r	elbow_flex_r	pro_sup_r	wrist_flex_r	wrist_dev_r	arm_flex_l	arm_add_l	arm_rot_l	elbow_flex_l	pro_sup_l	wrist_flex_l	wrist_dev_l
      0.80900000000000005000	     -5.34517237022919640000	     -0.58039218318762043000	     -2.17778593785259260000	      0.79141062495065817000	      1.05914908851234000000	     -0.46438792112399729000	     20.40919315363100500000	      1.95848028592154820000	     -6.81319802503873180000	     -9.68969902920964900000	    -17.15226069924206000000	      0.00000000000000000000	      0.00000000000000000000	     -3.85102507726400310000	     -0.84005936496447231000	     -4.36717163916110620000	    -39.71773718320464000000	    -25.01395633811429100000	      0.00000000000000000000	      0.00000000000000000000	     -2.12624887586127990000	      0.91500977063846067000	    -16.44569659980353300000	    -34.18072043063101300000	    -27.59029046916937500000	      3.36677617571116670000	    111.55696839857735000000	     72.85144475612575800000	      0.00000000000000000000	      0.00000000000000000000	    -10.19070467920096200000	    -34.78565089589486800000	     20.20862546328364200000	    129.86102067982452000000	     74.58279383744728400000	      0.00000000000000000000	      0.00000000000000000000
      0.81000000000000005000	     -5.33715037801430550000	     -0.58651410203684007000	     -2.20612068461848000000	      0.79150088123314910000	      1.05867049487814310000	     -0.46413140052230728000	     20.41215889551253000000	      1.99941572648830350000	     -6.80111866780235900000	     -9.74612372543597870000	    -17.25536112358708600000	     -0.00000000000000000095	     -0.00000000000000000085	     -3.75558161585893920000	     -0.87088465920146096000	     -4.38922936682376630000	    -40.07263235070923500000	    -24.94820345009065600000	      0.00000000000000000068	     -0.00000000000000000072	     -2.12257914140755320000	      0.93310411945431748000	    -16.38039806288545500000	    -34.16013659933988600000	    -27.54935334769779900000	      3.32164301566063140000	    111.55920878864708000000	     72.84268496884561700000	     -0.00000000000000000002	      0.00000000000000000012	    -10.24402457715521900000	    -34.77545597270003000000	     20.19348524798453300000	    129.78690126994618000000	     74.55698230325410200000	     -0.00000000000000000018	      0.00000000000000000040
      0.81100000000000005000	     -5.32754880287381650000	     -0.59346665558354739000	     -2.23451297555189840000	      0.79159221803758095000	      1.05818520740109360000	     -0.46387443032710057000	     20.41374039431172300000	      2.04109446831334030000	     -6.78562334090001330000	     -9.80894299153632150000	    -17.35239906004550600000	     -0.00000000000000000258	     -0.00000000000000000138	     -3.66090795957041730000	     -0.90349990764520249000	     -4.41399423733966060000	    -40.42810445701077500000	    -24.88065858660485900000	      0.00000000000000000284	     -0.00000000000000000183	     -2.12044534546636810000	      0.95213213581509859000	    -16.31462876555793400000	    -34.13738775132358000000	    -27.50875199221494700000	      3.27855303851505030000	    111.55997535228683000000	     72.83354888872820300000	     -0.00000000000000000009	     -0.00000000000000000054	    -10.29809613543627300000	    -34.76489045795104000000	     20.17856588408857000000	    129.71062757397547000000	     74.52735359479200400000	     -0.00000000000000000011	      0.00000000000000000047
      0.81200000000000006000	     -5.31631556523609470000	     -0.60123164945180629000	     -2.26289709590357770000	      0.79168468346179832000	      1.05769332602526590000	     -0.46361721824235780000	     20.41387708741007500000	      2.08345616973224200000	     -6.76686893010928260000	     -9.87824599808501350000	    -17.44271801435260400000	     -0.00000000000000000294	     -0.00000000000000000104	     -3.56708427909458470000	     -0.93786878848631372000	     -4.44132440808042530000	    -40.78407936597669400000	    -24.81134654132628700000	      0.00000000000000000651	     -0.00000000000000000114	     -2.11990552342709470000	      0.97209008238614358000	    -16.24845889268496200000	    -34.11249013390936100000	    -27.46852124240343300000	      3.23748384462152080000	    111.55928930757034000000	     72.82399521518921400000	     -0.00000000000000000037	     -0.00000000000000000261	    -10.35290966611750300000	    -34.75396303385805700000	     20.16386649178835800000	    129.63221532229545000000	     74.49398515434616300000	     -0.00000000000000000003	      0.00000000000000000365
      0.81300000000000006000	     -5.30338853422575250000	     -0.60978402170245516000	     -2.29118774726713600000	      0.79177832958323324000	      1.05719496827074290000	     -0.46336002520595426000	     20.41249495392357400000	      2.12642240230482880000	     -6.74503850468068580000	     -9.95412790404378530000	    -17.52551155057540600000	     -0.00000000000000000272	      0.00000000000000000015	     -3.47420164923468590000	     -0.97394183316383487000	     -4.47105382458960140000	    -41.14047700478851500000	    -24.74025739601793100000	      0.00000000000000000878	      0.00000000000000000128	     -2.12102946446773230000	      0.99297015423207746000	    -16.18197840332340200000	    -34.08546321381607000000	    -27.42870055168427600000	      3.19840758389846870000	    111.55717916430541000000	     72.81397548935430600000	     -0.00000000000000000062	     -0.00000000000000000466	    -10.40845422034909600000	    -34.74268691156828500000	     20.14938291193320600000	    129.55168433569025000000	     74.45698797773795300000	      0.00000000000000000081	      0.00000000000000000699
      0.81400000000000006000	     -5.28870751014385650000	     -0.61909668634820170000	     -2.31929884381700060000	      0.79187319760636410000	      1.05669025133803610000	     -0.46310311272484450000	     20.40952425676781000000	      2.16991320113481430000	     -6.72032040787047700000	    -10.03668501673524600000	    -17.59996495443852300000	     -0.00000000000000000254	      0.00000000000000000114	     -3.38234625184737990000	     -1.01166477430762950000	     -4.50300948820095390000	    -41.49722169018213000000	    -24.66738321365704300000	      0.00000000000000001082	      0.00000000000000000515	     -2.12388637841334300000	      1.01476193152047970000	    -16.11527698822427000000	    -34.05632682072274500000	    -27.38932671820677100000	      3.16129327650371070000	    111.55367510019251000000	     72.80344427631466400000	     -0.00000000000000000021	     -0.00000000000000000551	    -10.46471743065106400000	    -34.73107764574287200000	     20.13510758071773700000	    129.46905404334942000000	     74.41649434473296800000	      0.00000000000000000155	      0.00000000000000000930
      0.81500000000000006000	     -5.27221478273070330000	     -0.62914087570322086000	     -2.34714427816695850000	      0.79196931722757546000	      1.05617929168290580000	     -0.46284674069983422000	     20.40489993779244700000	      2.21384788222480380000	     -6.69290681422097400000	    -10.12601322533473800000	    -17.66526199254930100000	     -0.00000000000000000237	      0.00000000000000000200	     -3.29159872542198870000	     -1.05097920608737900000	     -4.53701272671756240000	    -41.85424238209518700000	    -24.59271871994497600000	      0.00000000000000001324	      0.00000000000000000939	     -2.12854430309379650000	      1.03745263152839180000	    -16.04844326774088300000	    -34.02510091024586800000	    -27.35043370086527000000	      3.12610706623735000000	    111.54880851547691000000	     72.79235995936804200000	      0.00000000000000000053	     -0.00000000000000000589	    -10.52168555123509800000	    -34.71915307497968700000	     20.12102955006077600000	    129.38434328466457000000	     74.37265757482624900000	      0.00000000000000000271	      0.00000000000000001279
